<mxfile host="Electron" agent="Mozilla/5.0 (Macintosh; Intel Mac OS X 10_15_7) AppleWebKit/537.36 (KHTML, like Gecko) draw.io/26.1.1 Chrome/132.0.6834.210 Electron/34.3.3 Safari/537.36" version="26.1.1">
  <diagram name="Page-1" id="7gY209RCUIrPCnwADLsG">
    <mxGraphModel dx="1114" dy="878" grid="1" gridSize="10" guides="1" tooltips="1" connect="1" arrows="1" fold="1" page="1" pageScale="1" pageWidth="827" pageHeight="1169" math="0" shadow="0">
      <root>
        <mxCell id="0" />
        <mxCell id="1" parent="0" />
        <mxCell id="CwEiy6VGFxARPlQ0D3OZ-1" style="rounded=0;orthogonalLoop=1;jettySize=auto;html=1;entryX=0.5;entryY=0;entryDx=0;entryDy=0;endArrow=block;endFill=1;" parent="1" source="CwEiy6VGFxARPlQ0D3OZ-2" target="CwEiy6VGFxARPlQ0D3OZ-6" edge="1">
          <mxGeometry relative="1" as="geometry" />
        </mxCell>
        <mxCell id="CwEiy6VGFxARPlQ0D3OZ-2" value="SupervisorJob&lt;div&gt;supervisor&lt;/div&gt;" style="rounded=0;whiteSpace=wrap;html=1;fillColor=#f8cecc;strokeColor=#b85450;" parent="1" vertex="1">
          <mxGeometry x="260" y="200" width="100" height="40" as="geometry" />
        </mxCell>
        <mxCell id="CwEiy6VGFxARPlQ0D3OZ-13" style="edgeStyle=orthogonalEdgeStyle;rounded=0;orthogonalLoop=1;jettySize=auto;html=1;entryX=0.5;entryY=0;entryDx=0;entryDy=0;endArrow=block;endFill=1;" parent="1" source="CwEiy6VGFxARPlQ0D3OZ-3" target="CwEiy6VGFxARPlQ0D3OZ-2" edge="1">
          <mxGeometry relative="1" as="geometry" />
        </mxCell>
        <mxCell id="CwEiy6VGFxARPlQ0D3OZ-3" value="Job&lt;div&gt;runBlocking&lt;/div&gt;" style="rounded=0;whiteSpace=wrap;html=1;fillColor=#dae8fc;strokeColor=#6c8ebf;" parent="1" vertex="1">
          <mxGeometry x="260" y="110" width="100" height="40" as="geometry" />
        </mxCell>
        <mxCell id="CwEiy6VGFxARPlQ0D3OZ-4" style="rounded=0;orthogonalLoop=1;jettySize=auto;html=1;entryX=0.5;entryY=0;entryDx=0;entryDy=0;endArrow=block;endFill=1;exitX=0.5;exitY=1;exitDx=0;exitDy=0;" parent="1" edge="1">
          <mxGeometry relative="1" as="geometry">
            <mxPoint x="268" y="330" as="sourcePoint" />
            <mxPoint x="218" y="380" as="targetPoint" />
          </mxGeometry>
        </mxCell>
        <mxCell id="CwEiy6VGFxARPlQ0D3OZ-5" value="Job&lt;div&gt;Coroutine1&lt;/div&gt;" style="rounded=0;whiteSpace=wrap;html=1;fillColor=#f5f5f5;fontColor=#333333;strokeColor=#666666;" parent="1" vertex="1">
          <mxGeometry x="200" y="290" width="100" height="40" as="geometry" />
        </mxCell>
        <mxCell id="CwEiy6VGFxARPlQ0D3OZ-6" value="Job&lt;div&gt;Coroutine2&lt;/div&gt;" style="rounded=0;whiteSpace=wrap;html=1;fillColor=#dae8fc;strokeColor=#6c8ebf;" parent="1" vertex="1">
          <mxGeometry x="320" y="290" width="100" height="40" as="geometry" />
        </mxCell>
        <mxCell id="CwEiy6VGFxARPlQ0D3OZ-7" style="rounded=0;orthogonalLoop=1;jettySize=auto;html=1;entryX=0.5;entryY=1;entryDx=0;entryDy=0;exitX=0.5;exitY=0;exitDx=0;exitDy=0;dashed=1;strokeColor=#FF3333;strokeWidth=2;" parent="1" source="CwEiy6VGFxARPlQ0D3OZ-8" target="CwEiy6VGFxARPlQ0D3OZ-5" edge="1">
          <mxGeometry relative="1" as="geometry" />
        </mxCell>
        <mxCell id="CwEiy6VGFxARPlQ0D3OZ-8" value="Job&lt;div&gt;Coroutine3&lt;/div&gt;" style="rounded=0;whiteSpace=wrap;html=1;fillColor=#f5f5f5;fontColor=#333333;strokeColor=#666666;" parent="1" vertex="1">
          <mxGeometry x="150" y="380" width="100" height="40" as="geometry" />
        </mxCell>
        <mxCell id="CwEiy6VGFxARPlQ0D3OZ-9" style="rounded=0;orthogonalLoop=1;jettySize=auto;html=1;entryX=0.58;entryY=-0.1;entryDx=0;entryDy=0;entryPerimeter=0;endArrow=block;endFill=1;" parent="1" source="CwEiy6VGFxARPlQ0D3OZ-2" target="CwEiy6VGFxARPlQ0D3OZ-5" edge="1">
          <mxGeometry relative="1" as="geometry" />
        </mxCell>
        <mxCell id="CwEiy6VGFxARPlQ0D3OZ-10" value="예외 전파" style="text;html=1;align=center;verticalAlign=middle;whiteSpace=wrap;rounded=0;fontStyle=1" parent="1" vertex="1">
          <mxGeometry x="158" y="340" width="60" height="30" as="geometry" />
        </mxCell>
        <mxCell id="CwEiy6VGFxARPlQ0D3OZ-11" value="" style="shape=mxgraph.mockup.markup.redX;fillColor=#ff0000;html=1;shadow=0;whiteSpace=wrap;strokeColor=none;" parent="1" vertex="1">
          <mxGeometry x="189" y="295" width="22" height="30" as="geometry" />
        </mxCell>
        <mxCell id="CwEiy6VGFxARPlQ0D3OZ-12" value="" style="shape=mxgraph.mockup.markup.redX;fillColor=#ff0000;html=1;shadow=0;whiteSpace=wrap;strokeColor=none;" parent="1" vertex="1">
          <mxGeometry x="139" y="385" width="22" height="30" as="geometry" />
        </mxCell>
      </root>
    </mxGraphModel>
  </diagram>
</mxfile>
